<mxfile host="app.diagrams.net" modified="2022-05-09T17:24:16.027Z" agent="5.0 (Windows NT 10.0; Win64; x64) AppleWebKit/537.36 (KHTML, like Gecko) Chrome/101.0.4951.54 Safari/537.36" etag="5KXjb3rLrGskoLqmft84" version="18.0.2" type="github">
  <diagram id="C5RBs43oDa-KdzZeNtuy" name="Page-1">
    <mxGraphModel dx="1673" dy="939" grid="1" gridSize="10" guides="1" tooltips="1" connect="1" arrows="1" fold="1" page="1" pageScale="1" pageWidth="827" pageHeight="1169" math="0" shadow="0">
      <root>
        <mxCell id="WIyWlLk6GJQsqaUBKTNV-0" />
        <mxCell id="WIyWlLk6GJQsqaUBKTNV-1" parent="WIyWlLk6GJQsqaUBKTNV-0" />
        <mxCell id="WIyWlLk6GJQsqaUBKTNV-2" value="" style="rounded=0;html=1;jettySize=auto;orthogonalLoop=1;fontSize=11;endArrow=block;endFill=0;endSize=8;strokeWidth=1;shadow=0;labelBackgroundColor=none;edgeStyle=orthogonalEdgeStyle;" parent="WIyWlLk6GJQsqaUBKTNV-1" source="WIyWlLk6GJQsqaUBKTNV-3" target="WIyWlLk6GJQsqaUBKTNV-6" edge="1">
          <mxGeometry relative="1" as="geometry" />
        </mxCell>
        <mxCell id="WIyWlLk6GJQsqaUBKTNV-3" value="Client Sends Packet" style="rounded=1;whiteSpace=wrap;html=1;fontSize=12;glass=0;strokeWidth=1;shadow=0;" parent="WIyWlLk6GJQsqaUBKTNV-1" vertex="1">
          <mxGeometry x="40" y="70" width="120" height="40" as="geometry" />
        </mxCell>
        <mxCell id="WIyWlLk6GJQsqaUBKTNV-4" value="Yes" style="rounded=0;html=1;jettySize=auto;orthogonalLoop=1;fontSize=11;endArrow=block;endFill=0;endSize=8;strokeWidth=1;shadow=0;labelBackgroundColor=none;edgeStyle=orthogonalEdgeStyle;" parent="WIyWlLk6GJQsqaUBKTNV-1" source="WIyWlLk6GJQsqaUBKTNV-6" edge="1">
          <mxGeometry y="20" relative="1" as="geometry">
            <mxPoint as="offset" />
            <mxPoint x="240" y="240" as="targetPoint" />
          </mxGeometry>
        </mxCell>
        <mxCell id="WIyWlLk6GJQsqaUBKTNV-5" value="No" style="edgeStyle=orthogonalEdgeStyle;rounded=0;html=1;jettySize=auto;orthogonalLoop=1;fontSize=11;endArrow=block;endFill=0;endSize=8;strokeWidth=1;shadow=0;labelBackgroundColor=none;" parent="WIyWlLk6GJQsqaUBKTNV-1" source="WIyWlLk6GJQsqaUBKTNV-6" target="WIyWlLk6GJQsqaUBKTNV-7" edge="1">
          <mxGeometry y="10" relative="1" as="geometry">
            <mxPoint as="offset" />
          </mxGeometry>
        </mxCell>
        <mxCell id="WIyWlLk6GJQsqaUBKTNV-6" value="VerifyPacket" style="rhombus;whiteSpace=wrap;html=1;shadow=0;fontFamily=Helvetica;fontSize=12;align=center;strokeWidth=1;spacing=6;spacingTop=-4;" parent="WIyWlLk6GJQsqaUBKTNV-1" vertex="1">
          <mxGeometry x="190" y="50" width="100" height="80" as="geometry" />
        </mxCell>
        <mxCell id="WIyWlLk6GJQsqaUBKTNV-7" value="Throw away pack" style="rounded=1;whiteSpace=wrap;html=1;fontSize=12;glass=0;strokeWidth=1;shadow=0;" parent="WIyWlLk6GJQsqaUBKTNV-1" vertex="1">
          <mxGeometry x="320" y="70" width="120" height="40" as="geometry" />
        </mxCell>
        <mxCell id="Ot3dI6KwwbcrFAqx15CF-17" style="edgeStyle=orthogonalEdgeStyle;rounded=0;orthogonalLoop=1;jettySize=auto;html=1;exitX=1;exitY=0.5;exitDx=0;exitDy=0;entryX=0;entryY=0.5;entryDx=0;entryDy=0;" edge="1" parent="WIyWlLk6GJQsqaUBKTNV-1" source="Ot3dI6KwwbcrFAqx15CF-11" target="Ot3dI6KwwbcrFAqx15CF-16">
          <mxGeometry relative="1" as="geometry" />
        </mxCell>
        <mxCell id="Ot3dI6KwwbcrFAqx15CF-16" value="PacketManager" style="swimlane;startSize=23;" vertex="1" parent="WIyWlLk6GJQsqaUBKTNV-1">
          <mxGeometry x="850" y="500" width="200" height="200" as="geometry" />
        </mxCell>
        <mxCell id="Ot3dI6KwwbcrFAqx15CF-24" value="PacketBuilder" style="swimlane;" vertex="1" parent="WIyWlLk6GJQsqaUBKTNV-1">
          <mxGeometry x="160" y="210" width="520" height="760" as="geometry">
            <mxRectangle x="160" y="160" width="130" height="23" as="alternateBounds" />
          </mxGeometry>
        </mxCell>
        <mxCell id="Ot3dI6KwwbcrFAqx15CF-2" value="PacketTarget" style="swimlane;fontStyle=0;childLayout=stackLayout;horizontal=1;startSize=30;horizontalStack=0;resizeParent=1;resizeParentMax=0;resizeLast=0;collapsible=1;marginBottom=0;" vertex="1" parent="Ot3dI6KwwbcrFAqx15CF-24">
          <mxGeometry x="13" y="40" width="140" height="120" as="geometry" />
        </mxCell>
        <mxCell id="Ot3dI6KwwbcrFAqx15CF-4" value="Command" style="text;strokeColor=none;fillColor=none;align=left;verticalAlign=middle;spacingLeft=4;spacingRight=4;overflow=hidden;points=[[0,0.5],[1,0.5]];portConstraint=eastwest;rotatable=0;" vertex="1" parent="Ot3dI6KwwbcrFAqx15CF-2">
          <mxGeometry y="30" width="140" height="30" as="geometry" />
        </mxCell>
        <mxCell id="Ot3dI6KwwbcrFAqx15CF-5" value="UserChat" style="text;strokeColor=none;fillColor=none;align=left;verticalAlign=middle;spacingLeft=4;spacingRight=4;overflow=hidden;points=[[0,0.5],[1,0.5]];portConstraint=eastwest;rotatable=0;" vertex="1" parent="Ot3dI6KwwbcrFAqx15CF-2">
          <mxGeometry y="60" width="140" height="30" as="geometry" />
        </mxCell>
        <mxCell id="Ot3dI6KwwbcrFAqx15CF-9" value="PublicChat" style="text;strokeColor=none;fillColor=none;align=left;verticalAlign=middle;spacingLeft=4;spacingRight=4;overflow=hidden;points=[[0,0.5],[1,0.5]];portConstraint=eastwest;rotatable=0;" vertex="1" parent="Ot3dI6KwwbcrFAqx15CF-2">
          <mxGeometry y="90" width="140" height="30" as="geometry" />
        </mxCell>
        <mxCell id="Ot3dI6KwwbcrFAqx15CF-8" style="edgeStyle=orthogonalEdgeStyle;rounded=0;orthogonalLoop=1;jettySize=auto;html=1;exitX=1;exitY=0.5;exitDx=0;exitDy=0;" edge="1" parent="Ot3dI6KwwbcrFAqx15CF-24">
          <mxGeometry relative="1" as="geometry">
            <mxPoint x="263" y="95" as="targetPoint" />
            <mxPoint x="153" y="95" as="sourcePoint" />
            <Array as="points">
              <mxPoint x="257" y="95" />
            </Array>
          </mxGeometry>
        </mxCell>
        <mxCell id="Ot3dI6KwwbcrFAqx15CF-18" style="edgeStyle=orthogonalEdgeStyle;rounded=0;orthogonalLoop=1;jettySize=auto;html=1;exitX=1;exitY=0.5;exitDx=0;exitDy=0;" edge="1" parent="Ot3dI6KwwbcrFAqx15CF-24" source="Ot3dI6KwwbcrFAqx15CF-10">
          <mxGeometry relative="1" as="geometry">
            <mxPoint x="493" y="389.9999999999998" as="targetPoint" />
          </mxGeometry>
        </mxCell>
        <mxCell id="Ot3dI6KwwbcrFAqx15CF-10" value="CommandManagerPacket" style="swimlane;startSize=23;" vertex="1" parent="Ot3dI6KwwbcrFAqx15CF-24">
          <mxGeometry x="263" y="80" width="200" height="200" as="geometry" />
        </mxCell>
        <mxCell id="Ot3dI6KwwbcrFAqx15CF-23" value="Text" style="text;html=1;strokeColor=none;fillColor=none;align=center;verticalAlign=middle;whiteSpace=wrap;rounded=0;" vertex="1" parent="Ot3dI6KwwbcrFAqx15CF-10">
          <mxGeometry y="30" width="60" height="30" as="geometry" />
        </mxCell>
        <mxCell id="Ot3dI6KwwbcrFAqx15CF-11" value="UserChatPacket(!)" style="swimlane;" vertex="1" parent="Ot3dI6KwwbcrFAqx15CF-24">
          <mxGeometry x="263" y="290" width="200" height="200" as="geometry" />
        </mxCell>
        <mxCell id="Ot3dI6KwwbcrFAqx15CF-21" value="Text" style="text;html=1;strokeColor=none;fillColor=none;align=center;verticalAlign=middle;whiteSpace=wrap;rounded=0;" vertex="1" parent="Ot3dI6KwwbcrFAqx15CF-11">
          <mxGeometry y="30" width="60" height="30" as="geometry" />
        </mxCell>
        <mxCell id="Ot3dI6KwwbcrFAqx15CF-12" value="" style="endArrow=classic;html=1;rounded=0;exitX=1;exitY=0.5;exitDx=0;exitDy=0;entryX=-0.005;entryY=0.057;entryDx=0;entryDy=0;entryPerimeter=0;" edge="1" parent="Ot3dI6KwwbcrFAqx15CF-24" source="Ot3dI6KwwbcrFAqx15CF-5" target="Ot3dI6KwwbcrFAqx15CF-11">
          <mxGeometry width="50" height="50" relative="1" as="geometry">
            <mxPoint x="253" y="260" as="sourcePoint" />
            <mxPoint x="243" y="330" as="targetPoint" />
            <Array as="points">
              <mxPoint x="243" y="115" />
              <mxPoint x="243" y="301" />
            </Array>
          </mxGeometry>
        </mxCell>
        <mxCell id="Ot3dI6KwwbcrFAqx15CF-19" style="edgeStyle=orthogonalEdgeStyle;rounded=0;orthogonalLoop=1;jettySize=auto;html=1;exitX=1;exitY=0.5;exitDx=0;exitDy=0;" edge="1" parent="Ot3dI6KwwbcrFAqx15CF-24" source="Ot3dI6KwwbcrFAqx15CF-13">
          <mxGeometry relative="1" as="geometry">
            <mxPoint x="493" y="389.9999999999998" as="targetPoint" />
          </mxGeometry>
        </mxCell>
        <mxCell id="Ot3dI6KwwbcrFAqx15CF-13" value="PublicChatPacket" style="swimlane;" vertex="1" parent="Ot3dI6KwwbcrFAqx15CF-24">
          <mxGeometry x="263" y="500" width="200" height="200" as="geometry" />
        </mxCell>
        <mxCell id="Ot3dI6KwwbcrFAqx15CF-22" value="Text" style="text;html=1;strokeColor=none;fillColor=none;align=center;verticalAlign=middle;whiteSpace=wrap;rounded=0;" vertex="1" parent="Ot3dI6KwwbcrFAqx15CF-13">
          <mxGeometry y="30" width="60" height="30" as="geometry" />
        </mxCell>
        <mxCell id="Ot3dI6KwwbcrFAqx15CF-15" value="" style="endArrow=classic;html=1;rounded=0;exitX=1;exitY=0.5;exitDx=0;exitDy=0;entryX=0;entryY=0.05;entryDx=0;entryDy=0;entryPerimeter=0;" edge="1" parent="Ot3dI6KwwbcrFAqx15CF-24" target="Ot3dI6KwwbcrFAqx15CF-13">
          <mxGeometry width="50" height="50" relative="1" as="geometry">
            <mxPoint x="153" y="150" as="sourcePoint" />
            <mxPoint x="262" y="336.4000000000001" as="targetPoint" />
            <Array as="points">
              <mxPoint x="223" y="150" />
              <mxPoint x="223" y="240" />
              <mxPoint x="223" y="510" />
            </Array>
          </mxGeometry>
        </mxCell>
        <mxCell id="Ot3dI6KwwbcrFAqx15CF-25" value="&amp;lt;ID&amp;gt;&amp;lt;UserName&amp;gt;&amp;lt;*Text*&amp;gt;" style="text;html=1;strokeColor=none;fillColor=none;align=left;verticalAlign=middle;whiteSpace=wrap;rounded=0;" vertex="1" parent="WIyWlLk6GJQsqaUBKTNV-1">
          <mxGeometry x="40" y="130" width="230" height="30" as="geometry" />
        </mxCell>
      </root>
    </mxGraphModel>
  </diagram>
</mxfile>
